<svg xmlns="http://www.w3.org/2000/svg" width="42" height="42" viewBox="0 0 42 42"><defs><mask id="mzbab" width="2" height="2" x="-1" y="-1"><path fill="#fff" d="M4 0h34v34H4z"/><path d="M21 0c9.389 0 17 7.611 17 17s-7.611 17-17 17S4 26.389 4 17 11.611 0 21 0z"/></mask><filter id="mzbaa" width="64" height="68" x="-11" y="-15" filterUnits="userSpaceOnUse"><feOffset dy="4" in="SourceGraphic" result="FeOffset1023Out"/><feGaussianBlur in="FeOffset1023Out" result="FeGaussianBlur1024Out" stdDeviation="2 2"/></filter><clipPath id="mzbac"><path fill="#fff" d="M21 0c9.389 0 17 7.611 17 17s-7.611 17-17 17S4 26.389 4 17 11.611 0 21 0z"/></clipPath></defs><g><g><g filter="url(#mzbaa)"><path fill="none" d="M21 0c9.389 0 17 7.611 17 17s-7.611 17-17 17S4 26.389 4 17 11.611 0 21 0z" mask="url(&quot;#mzbab&quot;)"/><path fill-opacity=".3" d="M21 0c9.389 0 17 7.611 17 17s-7.611 17-17 17S4 26.389 4 17 11.611 0 21 0z"/></g><path fill="#68b738" d="M21 0c9.389 0 17 7.611 17 17s-7.611 17-17 17S4 26.389 4 17 11.611 0 21 0z"/><path fill="#fff" d="M21 0c9.389 0 17 7.611 17 17s-7.611 17-17 17S4 26.389 4 17 11.611 0 21 0z"/><path fill="none" stroke="#68b738" stroke-linecap="round" stroke-linejoin="round" stroke-miterlimit="50" stroke-width="4" d="M21 0c9.389 0 17 7.611 17 17s-7.611 17-17 17S4 26.389 4 17 11.611 0 21 0z" clip-path="url(&quot;#mzbac&quot;)"/></g><g><path fill="#68b738" d="M21 13a4 4 0 1 1 0 8 4 4 0 0 1 0-8z"/><path fill="#68b738" d="M21 13a4 4 0 1 1 0 8 4 4 0 0 1 0-8z"/></g></g></svg>