<svg width="15" height="15" viewBox="0 0 15 15" fill="none" xmlns="http://www.w3.org/2000/svg">
<path d="M14.9928 11.8359C15.0246 12.0794 14.9504 12.2912 14.7705 12.4711L12.6586 14.5671C12.5633 14.673 12.4389 14.763 12.2854 14.8371C12.1319 14.9112 11.9811 14.9588 11.8329 14.98C11.8223 14.98 11.7905 14.9827 11.7376 14.988C11.6847 14.9933 11.6159 14.996 11.5312 14.996C11.33 14.996 11.0045 14.9616 10.5545 14.8927C10.1046 14.8239 9.55416 14.6545 8.90315 14.3846C8.25199 14.1146 7.51362 13.7096 6.68792 13.1698C5.86221 12.63 4.98352 11.8889 4.05193 10.9467C3.31089 10.2162 2.69688 9.51752 2.20991 8.85061C1.72295 8.18365 1.33125 7.567 1.03484 7.00063C0.738394 6.43426 0.516082 5.92083 0.367874 5.46033C0.219666 4.99982 0.119096 4.60284 0.0661643 4.26937C0.0132329 3.9359 -0.00793972 3.67389 0.00264657 3.48334C0.0132329 3.29278 0.018526 3.18692 0.018526 3.16575C0.0396986 3.01754 0.0873369 2.86668 0.161441 2.71318C0.235545 2.55968 0.325529 2.43529 0.431391 2.34002L2.54336 0.228049C2.69157 0.0798414 2.86095 0.0057373 3.0515 0.0057373C3.18912 0.0057373 3.31086 0.0454359 3.41673 0.124833C3.52259 0.20423 3.61257 0.302154 3.68668 0.418603L5.38578 3.64213C5.48105 3.81151 5.50752 3.99677 5.46517 4.19791C5.42283 4.39905 5.33285 4.56843 5.19522 4.70605L4.41713 5.48414C4.39596 5.50532 4.37743 5.53972 4.36155 5.58736C4.34567 5.635 4.33773 5.6747 4.33773 5.70646C4.38008 5.92877 4.47536 6.18284 4.62356 6.46867C4.7506 6.72274 4.94645 7.03239 5.2111 7.39762C5.47576 7.76285 5.85157 8.18362 6.33854 8.66001C6.81493 9.14703 7.23838 9.52544 7.6089 9.79544C7.97934 10.0653 8.28909 10.2639 8.53787 10.3909C8.78665 10.5179 8.9772 10.5947 9.10951 10.6211L9.30795 10.6608C9.32912 10.6608 9.3636 10.6528 9.41119 10.637C9.45883 10.6211 9.49323 10.6026 9.51443 10.5814L10.4195 9.66036C10.6102 9.49101 10.8324 9.40631 11.0865 9.40631C11.2665 9.40631 11.4094 9.43805 11.5152 9.50159H11.5311L14.5958 11.3118C14.8182 11.4496 14.9505 11.6242 14.9928 11.8359Z" fill="#010002"/>
</svg>
