<svg width="40" height="40" viewBox="0 0 40 40" fill="none" xmlns="http://www.w3.org/2000/svg">
<path d="M30 0H10C4.47715 0 0 4.47715 0 10V30C0 35.5228 4.47715 40 10 40H30C35.5228 40 40 35.5228 40 30V10C40 4.47715 35.5228 0 30 0Z" fill="#0088CC"/>
<path d="M9.37196 20.159L13.982 21.836L15.766 27.43C15.7941 27.5136 15.8419 27.5891 15.9055 27.6502C15.9691 27.7114 16.0464 27.7563 16.131 27.7811C16.2156 27.8059 16.305 27.81 16.3915 27.7929C16.478 27.7758 16.5591 27.7381 16.628 27.683L19.198 25.641C19.3302 25.5368 19.4925 25.4782 19.6608 25.4737C19.8291 25.4692 19.9943 25.5191 20.132 25.616L24.766 28.896C24.839 28.9483 24.9239 28.9818 25.013 28.9935C25.1021 29.0053 25.1928 28.9949 25.2769 28.9632C25.361 28.9316 25.4361 28.8797 25.4954 28.8122C25.5547 28.7446 25.5965 28.6635 25.617 28.576L29.017 12.656C29.0346 12.5613 29.0266 12.4636 28.9937 12.3731C28.9608 12.2826 28.9042 12.2026 28.8299 12.1413C28.7556 12.0801 28.6662 12.0398 28.5711 12.0248C28.4759 12.0098 28.3785 12.0206 28.289 12.056L9.36696 19.168C9.26441 19.2045 9.17575 19.2719 9.11322 19.361C9.05069 19.4501 9.0174 19.5564 9.01795 19.6653C9.0185 19.7741 9.05286 19.8801 9.11628 19.9685C9.17971 20.057 9.26905 20.1235 9.37196 20.159ZM15.478 20.943L24.487 15.534C24.5193 15.5126 24.5585 15.5042 24.5967 15.5104C24.635 15.5166 24.6695 15.537 24.6933 15.5676C24.7172 15.5981 24.7287 15.6366 24.7254 15.6752C24.7222 15.7138 24.7045 15.7498 24.676 15.776L17.242 22.514C16.9818 22.7485 16.8126 23.0671 16.764 23.414L16.511 25.244C16.5028 25.2963 16.477 25.3443 16.438 25.3801C16.399 25.4159 16.349 25.4374 16.2962 25.4412C16.2434 25.4449 16.1908 25.4306 16.1472 25.4006C16.1036 25.3706 16.0714 25.3266 16.056 25.276L15.082 21.938C15.0286 21.7517 15.0386 21.553 15.1105 21.3731C15.1824 21.1932 15.312 21.0422 15.479 20.944L15.478 20.943Z" fill="black"/>
<path d="M24.766 28.9L20.131 25.619C19.9933 25.5222 19.8282 25.4724 19.6599 25.4769C19.4917 25.4814 19.3294 25.54 19.197 25.644L16.627 27.686C16.5581 27.7409 16.4771 27.7784 16.3908 27.7954C16.3044 27.8123 16.2152 27.8082 16.1307 27.7834C16.0463 27.7586 15.969 27.7138 15.9055 27.6528C15.842 27.5918 15.7942 27.5164 15.766 27.433L13.981 21.84L9.37098 20.162C9.26853 20.1261 9.17973 20.0593 9.11671 19.9709C9.05368 19.8825 9.0196 19.7768 9.01905 19.6682C9.0185 19.5597 9.05153 19.4536 9.11365 19.3646C9.17578 19.2756 9.26389 19.2079 9.36597 19.171L28.285 12.056C28.3746 12.0208 28.4718 12.0103 28.5668 12.0254C28.6618 12.0405 28.7509 12.0807 28.8251 12.142C28.8993 12.2032 28.9558 12.2831 28.9887 12.3735C29.0215 12.4639 29.0295 12.5614 29.012 12.656L25.617 28.576C25.596 28.6632 25.5541 28.744 25.4948 28.8112C25.4354 28.8785 25.3603 28.9302 25.2764 28.9617C25.1924 28.9933 25.102 29.0038 25.0131 28.9924C24.9241 28.9809 24.8392 28.9478 24.766 28.896V28.9ZM24.4871 15.539L15.478 20.948C15.3104 21.0457 15.18 21.1964 15.1076 21.3764C15.0351 21.5564 15.0247 21.7554 15.078 21.942L16.052 25.278C16.0675 25.3286 16.0997 25.3726 16.1433 25.4026C16.187 25.4326 16.2394 25.4469 16.2922 25.4432C16.3451 25.4394 16.3951 25.4179 16.4341 25.3821C16.4731 25.3463 16.4988 25.2983 16.507 25.246L16.761 23.416C16.8092 23.0692 16.9782 22.7506 17.238 22.516L24.674 15.779C24.6967 15.7579 24.7126 15.7305 24.7195 15.7003C24.7264 15.6701 24.724 15.6385 24.7127 15.6096C24.7013 15.5808 24.6815 15.556 24.6559 15.5386C24.6303 15.5212 24.6 15.5119 24.569 15.512C24.5404 15.5124 24.5126 15.5204 24.488 15.535L24.4871 15.539Z" fill="white"/>
</svg>
