<svg width="20" height="20" viewBox="0 0 20 20" fill="none" xmlns="http://www.w3.org/2000/svg">
<path fill-rule="evenodd" clip-rule="evenodd" d="M16.6359 12.1586C15.5951 12.1586 14.5731 11.9958 13.6047 11.6757C13.1219 11.5111 12.5722 11.6389 12.2572 11.9598L10.3457 13.4028C8.12898 12.2195 6.76349 10.8544 5.59633 8.65429L6.99684 6.79262C7.3607 6.42924 7.49121 5.89844 7.33485 5.40039C7.01344 4.42687 6.85017 3.40541 6.85017 2.36416C6.85021 1.61196 6.23826 1 5.4861 1H2.36407C1.61196 1 1 1.61196 1 2.36407C1 10.9859 8.01418 18 16.6359 18C17.388 18 18 17.388 18 16.6359V13.5226C18 12.7705 17.388 12.1586 16.6359 12.1586ZM17.0555 16.6359C17.0555 16.8674 16.8674 17.0556 16.6359 17.0556C8.53481 17.0556 1.94447 10.4652 1.94447 2.36412C1.94447 2.13262 2.13262 1.94447 2.36412 1.94447H5.48614C5.71763 1.94447 5.90578 2.13262 5.90578 2.36412C5.90578 3.50639 6.08517 4.62746 6.4361 5.68952C6.48498 5.84633 6.44531 6.00862 6.28669 6.17376L4.66341 8.32359C4.55459 8.46791 4.53751 8.66116 4.61914 8.82208C5.94403 11.4262 7.55394 13.0361 10.1765 14.3799C10.336 14.4634 10.5316 14.4459 10.6764 14.3366L12.8756 12.6705C12.9867 12.5593 13.1532 12.5197 13.3036 12.5708C14.373 12.9241 15.4941 13.103 16.6359 13.103C16.8674 13.103 17.0555 13.2912 17.0555 13.5227V16.6359Z" fill="black"/>
</svg>
