<svg width="40" height="40" viewBox="0 0 40 40" fill="none" xmlns="http://www.w3.org/2000/svg">
<path d="M30 0H10C4.47715 0 0 4.47715 0 10V30C0 35.5228 4.47715 40 10 40H30C35.5228 40 40 35.5228 40 30V10C40 4.47715 35.5228 0 30 0Z" fill="#665CAC"/>
<path d="M15.275 31.962C15.1999 31.9257 15.1367 31.8689 15.0928 31.798C15.0489 31.7272 15.0261 31.6453 15.027 31.562V29C13.5259 28.3438 12.2513 27.2602 11.3621 25.8843C10.473 24.5084 10.0086 22.9011 10.027 21.263V17.32C9.97724 15.1679 10.7826 13.0838 12.2665 11.5243C13.7505 9.96484 15.792 9.05711 17.944 9L22.111 9C24.2627 9.05737 26.304 9.96521 27.7877 11.5247C29.2715 13.0841 30.0767 15.1681 30.027 17.32V21.266C30.0767 23.4179 29.2715 25.5019 27.7877 27.0613C26.304 28.6208 24.2627 29.5286 22.111 29.586H18.14L15.724 31.886C15.649 31.9588 15.5485 31.9994 15.444 31.999C15.3856 31.9991 15.3279 31.9865 15.275 31.962ZM10.861 17.32V21.266C10.8426 22.7772 11.2845 24.2582 12.128 25.5123C12.9714 26.7663 14.1764 27.7341 15.583 28.287C15.6659 28.3192 15.737 28.3761 15.7867 28.4499C15.8364 28.5237 15.8623 28.611 15.861 28.7V30.574L17.7 28.824C17.7749 28.7512 17.8754 28.7106 17.98 28.711H22.112C24.0373 28.6599 25.8639 27.8477 27.1915 26.4524C28.5191 25.0571 29.2396 23.1925 29.195 21.267V17.32C29.2396 15.3943 28.519 13.5295 27.1911 12.1342C25.8633 10.7389 24.0365 9.92683 22.111 9.876H17.944C16.0186 9.92709 14.1921 10.7393 12.8644 12.1346C11.5368 13.5299 10.8163 15.3945 10.861 17.32ZM21.868 25.076C20.1046 24.1149 18.4756 22.9256 17.023 21.539C15.9481 20.3708 15.0162 19.0787 14.247 17.69C14.236 17.6694 14.2266 17.648 14.219 17.626C13.985 17.1422 13.8998 16.5998 13.9742 16.0676C14.0486 15.5353 14.2793 15.0371 14.637 14.636L15.9 13.487C15.9403 13.449 15.9881 13.4198 16.0404 13.4012C16.0926 13.3827 16.1481 13.3752 16.2034 13.3792C16.2587 13.3833 16.3125 13.3988 16.3615 13.4247C16.4105 13.4507 16.4536 13.4865 16.488 13.53L18.488 15.953C18.7057 16.2203 18.8141 16.5602 18.7913 16.9042C18.7685 17.2482 18.6161 17.5708 18.365 17.807L18.065 18.084C18.2467 18.8296 18.6276 19.5118 19.1669 20.0578C19.7062 20.6038 20.3837 20.993 21.127 21.184L21.247 20.99C21.3332 20.8464 21.4477 20.7218 21.5835 20.6236C21.7193 20.5255 21.8735 20.4559 22.037 20.419C22.1979 20.3836 22.3645 20.3818 22.5262 20.4136C22.6879 20.4455 22.8414 20.5103 22.977 20.604L25.538 22.353C25.6317 22.4197 25.6965 22.5195 25.7194 22.6322C25.7422 22.7449 25.7213 22.8621 25.661 22.96L24.753 24.429C24.5712 24.7317 24.3147 24.9827 24.0081 25.1578C23.7015 25.3329 23.355 25.4263 23.002 25.429C22.5969 25.4289 22.2015 25.3058 21.868 25.076ZM15.184 15.3C14.719 15.725 14.661 16.323 14.991 17.3C15.724 18.6071 16.6052 19.8255 17.617 20.931C19.0224 22.2573 20.5918 23.3982 22.287 24.326C22.4246 24.4243 22.5811 24.4931 22.7466 24.5281C22.9121 24.563 23.0831 24.5634 23.2487 24.5291C23.4144 24.4948 23.5712 24.4267 23.7092 24.3289C23.8473 24.2311 23.9636 24.1059 24.051 23.961L24.732 22.861L22.52 21.351C22.4748 21.3194 22.4236 21.2975 22.3695 21.2867C22.3155 21.2759 22.2598 21.2763 22.206 21.288C22.1517 21.3003 22.1005 21.3235 22.0555 21.3562C22.0105 21.3889 21.9725 21.4303 21.944 21.478L21.644 21.956C21.5965 22.0364 21.5227 22.098 21.435 22.1303C21.3474 22.1625 21.2512 22.1635 21.163 22.133L20.983 22.07C20.0385 21.8298 19.181 21.3281 18.5088 20.6225C17.8366 19.9169 17.3771 19.036 17.183 18.081C17.1591 18.0004 17.1581 17.9148 17.1802 17.8337C17.2023 17.7526 17.2465 17.6793 17.308 17.622L17.819 17.155C17.9037 17.0768 17.9551 16.969 17.9625 16.854C17.97 16.739 17.9329 16.6254 17.859 16.537L16.128 14.436L15.184 15.3ZM25.684 18.6C25.3541 17.3308 24.7075 16.166 23.8047 15.2149C22.9018 14.2638 21.7723 13.5574 20.522 13.162C20.4134 13.1266 20.3228 13.0504 20.2692 12.9494C20.2157 12.8485 20.2034 12.7308 20.235 12.621C20.248 12.5669 20.2719 12.516 20.3052 12.4713C20.3384 12.4267 20.3804 12.3892 20.4285 12.3612C20.4766 12.3332 20.5299 12.3152 20.5851 12.3083C20.6404 12.3014 20.6964 12.3057 20.75 12.321C22.1393 12.7607 23.3943 13.5459 24.3973 14.603C25.4004 15.6601 26.1187 16.9545 26.485 18.365C26.5159 18.4748 26.5032 18.5923 26.4495 18.6929C26.3959 18.7935 26.3054 18.8695 26.197 18.905C26.1602 18.9156 26.1222 18.921 26.084 18.921C25.9912 18.919 25.9018 18.8865 25.8294 18.8284C25.7571 18.7704 25.706 18.6901 25.684 18.6ZM23.749 18.411C23.5543 17.6613 23.1724 16.9734 22.6391 16.4118C22.1058 15.8501 21.4385 15.4331 20.7 15.2C20.5914 15.1646 20.5008 15.0884 20.4472 14.9874C20.3937 14.8865 20.3814 14.7688 20.413 14.659C20.4262 14.605 20.4501 14.5541 20.4834 14.5096C20.5167 14.465 20.5587 14.4276 20.6067 14.3996C20.6548 14.3716 20.708 14.3536 20.7632 14.3466C20.8184 14.3396 20.8744 14.3438 20.928 14.359C21.8049 14.6366 22.597 15.1323 23.2301 15.7995C23.8632 16.4667 24.3167 17.2837 24.548 18.174C24.5792 18.2838 24.5666 18.4014 24.5129 18.5021C24.4592 18.6028 24.3685 18.6788 24.26 18.714C24.2232 18.7246 24.1852 18.73 24.147 18.73C24.0551 18.7278 23.9665 18.6957 23.8946 18.6384C23.8228 18.5812 23.7716 18.502 23.749 18.413V18.411ZM22.041 18.311C21.9587 17.9936 21.7972 17.7023 21.5715 17.4645C21.3459 17.2266 21.0635 17.0499 20.751 16.951C20.6424 16.9156 20.5518 16.8394 20.4982 16.7384C20.4447 16.6375 20.4324 16.5198 20.464 16.41C20.477 16.3559 20.5009 16.305 20.5342 16.2603C20.5674 16.2157 20.6094 16.1782 20.6575 16.1502C20.7056 16.1222 20.7589 16.1042 20.8141 16.0973C20.8694 16.0904 20.9254 16.0947 20.979 16.11C21.4304 16.253 21.8382 16.5082 22.1641 16.8517C22.4901 17.1952 22.7237 17.6157 22.843 18.074C22.8742 18.1838 22.8616 18.3014 22.8079 18.4021C22.7542 18.5028 22.6635 18.5788 22.555 18.614C22.5182 18.6246 22.4802 18.63 22.442 18.63C22.3503 18.6288 22.2615 18.5976 22.1891 18.5413C22.1167 18.485 22.0647 18.4066 22.041 18.318V18.311Z" fill="black"/>
<path d="M15.276 31.963C15.201 31.9267 15.1378 31.8699 15.0939 31.799C15.05 31.7282 15.0271 31.6463 15.028 31.563V29C13.5269 28.3438 12.2523 27.2602 11.3632 25.8843C10.474 24.5084 10.0096 22.9011 10.028 21.263V17.32C9.97797 15.168 10.7832 13.0839 12.267 11.5244C13.7508 9.96487 15.7921 9.05711 17.944 9H22.1121C24.264 9.05711 26.3055 9.96484 27.7894 11.5243C29.2734 13.0838 30.0788 15.1679 30.0291 17.32V21.266C30.079 23.4183 29.2738 25.5026 27.7898 27.0623C26.3058 28.622 24.2642 29.5299 22.1121 29.587H18.141L15.724 31.887C15.6485 31.9591 15.5483 31.9995 15.444 32C15.3859 32 15.3287 31.9874 15.276 31.963ZM10.861 17.32V21.266C10.8424 22.7772 11.2841 24.2584 12.1273 25.5126C12.9706 26.7669 14.1755 27.7349 15.582 28.288C15.6648 28.3202 15.7357 28.3769 15.7854 28.4505C15.8351 28.5241 15.8611 28.6112 15.86 28.7V30.575L17.699 28.824C17.7743 28.7517 17.8746 28.7113 17.979 28.711H22.111C24.0363 28.6599 25.8629 27.8477 27.1905 26.4524C28.5182 25.0571 29.2386 23.1925 29.194 21.267V17.32C29.2383 15.3946 28.5178 13.5301 27.1902 12.1348C25.8626 10.7396 24.0362 9.92735 22.111 9.876H17.943C16.0178 9.92735 14.1916 10.7396 12.8641 12.1349C11.5367 13.5302 10.8163 15.3947 10.861 17.32ZM21.868 25.076C20.1043 24.1151 18.4748 22.9259 17.022 21.539C15.9473 20.371 15.0154 19.0792 14.246 17.691C14.2353 17.6704 14.2263 17.649 14.219 17.627C13.9848 17.1432 13.8995 16.6008 13.9739 16.0685C14.0483 15.5362 14.279 15.038 14.637 14.637L15.895 13.488C15.9354 13.45 15.9832 13.4208 16.0354 13.4022C16.0876 13.3837 16.1432 13.3762 16.1985 13.3802C16.2538 13.3843 16.3076 13.3998 16.3566 13.4257C16.4055 13.4517 16.4486 13.4875 16.483 13.531L18.483 15.954C18.7012 16.2211 18.8099 16.5609 18.7872 16.905C18.7646 17.2491 18.6122 17.5718 18.361 17.808L18.061 18.085C18.243 18.8307 18.624 19.5129 19.1635 20.0589C19.7029 20.6049 20.3806 20.9941 21.124 21.185L21.245 20.991C21.331 20.8474 21.4453 20.7227 21.5809 20.6246C21.7166 20.5264 21.8707 20.4568 22.0341 20.42C22.195 20.3846 22.3616 20.3828 22.5233 20.4146C22.685 20.4465 22.8384 20.5113 22.974 20.605L25.535 22.354C25.6288 22.4207 25.6936 22.5205 25.7164 22.6332C25.7393 22.7459 25.7183 22.8631 25.658 22.961L24.75 24.43C24.5684 24.7326 24.3121 24.9835 24.0056 25.1586C23.6992 25.3338 23.3529 25.4272 23 25.43C22.5956 25.4292 22.2009 25.3057 21.868 25.076ZM15.1851 15.298C14.7201 15.723 14.6609 16.32 14.9919 17.298C15.7244 18.6055 16.6052 19.8243 17.6169 20.93C19.0225 22.2562 20.5919 23.3971 22.287 24.325C22.4246 24.4233 22.5812 24.4921 22.7467 24.5271C22.9122 24.562 23.0831 24.5624 23.2488 24.5281C23.4144 24.4938 23.5712 24.4257 23.7092 24.3279C23.8473 24.2301 23.9637 24.1049 24.051 23.96L24.731 22.86L22.52 21.351C22.4748 21.3194 22.4237 21.2975 22.3696 21.2867C22.3156 21.2759 22.2599 21.2763 22.2061 21.288C22.1517 21.3004 22.1004 21.3236 22.0552 21.3562C22.01 21.3889 21.9718 21.4303 21.943 21.478L21.6429 21.957C21.5952 22.0371 21.5213 22.0984 21.4337 22.1304C21.3461 22.1625 21.2502 22.1634 21.162 22.133L20.9821 22.07C20.0376 21.8298 19.18 21.3281 18.5078 20.6225C17.8356 19.9169 17.3761 19.036 17.182 18.081C17.1581 18.0003 17.1572 17.9145 17.1793 17.8333C17.2014 17.752 17.2456 17.6786 17.307 17.621L17.818 17.154C17.9027 17.076 17.9541 16.9684 17.9615 16.8535C17.969 16.7386 17.9319 16.6253 17.858 16.537L16.128 14.445L15.1851 15.298ZM25.6851 18.598C25.3553 17.3288 24.7088 16.164 23.8062 15.2127C22.9035 14.2615 21.7742 13.5548 20.524 13.159C20.4155 13.1235 20.3248 13.0474 20.2712 12.9464C20.2177 12.8455 20.2055 12.7278 20.2371 12.618C20.2503 12.564 20.2742 12.5131 20.3075 12.4686C20.3408 12.424 20.3827 12.3866 20.4308 12.3586C20.4789 12.3306 20.5321 12.3126 20.5873 12.3056C20.6425 12.2986 20.6984 12.3028 20.752 12.318C22.1415 12.7576 23.3967 13.5427 24.3999 14.5998C25.4031 15.6569 26.1217 16.9514 26.488 18.362C26.5195 18.4719 26.5071 18.5898 26.4534 18.6907C26.3996 18.7916 26.3087 18.8678 26.1999 18.903C26.1632 18.9136 26.1253 18.9189 26.087 18.919C25.9941 18.9178 25.9041 18.8858 25.8312 18.8281C25.7583 18.7704 25.7065 18.6902 25.684 18.6L25.6851 18.598ZM23.749 18.409C23.5543 17.6596 23.1722 16.972 22.6389 16.4107C22.1056 15.8494 21.4384 15.4328 20.6999 15.2C20.5915 15.1643 20.5011 15.0881 20.4476 14.9873C20.3941 14.8864 20.3817 14.7688 20.413 14.659C20.4262 14.605 20.4502 14.5541 20.4835 14.5096C20.5168 14.465 20.5587 14.4276 20.6068 14.3996C20.6549 14.3716 20.7081 14.3536 20.7633 14.3466C20.8185 14.3396 20.8745 14.3438 20.928 14.359C21.8049 14.6367 22.5972 15.1324 23.2305 15.7996C23.8637 16.4668 24.3173 17.2837 24.5489 18.174C24.5799 18.2838 24.5672 18.4013 24.5135 18.5019C24.4599 18.6025 24.3694 18.6785 24.261 18.714C24.2243 18.7249 24.1862 18.7303 24.1479 18.73C24.0558 18.7281 23.9669 18.6961 23.8947 18.6388C23.8224 18.5816 23.771 18.5023 23.748 18.413L23.749 18.409ZM22.042 18.315C21.9596 17.9975 21.798 17.7062 21.5721 17.4683C21.3463 17.2304 21.0637 17.0538 20.751 16.955C20.6425 16.9193 20.5522 16.8431 20.4987 16.7423C20.4452 16.6414 20.4327 16.5238 20.464 16.414C20.4772 16.3599 20.5012 16.3089 20.5345 16.2643C20.5679 16.2196 20.6099 16.1822 20.6581 16.1542C20.7063 16.1261 20.7596 16.1081 20.8149 16.1012C20.8702 16.0943 20.9264 16.0987 20.98 16.114C21.4315 16.2571 21.8394 16.5125 22.1654 16.8561C22.4914 17.1998 22.7249 17.6205 22.844 18.079C22.8752 18.1888 22.8627 18.3064 22.809 18.4071C22.7552 18.5078 22.6646 18.5838 22.556 18.619C22.5193 18.6296 22.4812 18.6349 22.443 18.635C22.3505 18.6339 22.261 18.6024 22.1884 18.5452C22.1157 18.4881 22.0639 18.4086 22.041 18.319L22.042 18.315Z" fill="white"/>
</svg>
