<svg width="40" height="40" viewBox="0 0 40 40" fill="none" xmlns="http://www.w3.org/2000/svg">
<path d="M30 0H10C4.47715 0 0 4.47715 0 10V30C0 35.5228 4.47715 40 10 40H30C35.5228 40 40 35.5228 40 30V10C40 4.47715 35.5228 0 30 0Z" fill="#4FCE5D"/>
<path d="M20.5 11C18.7493 10.999 17.0324 11.4821 15.5391 12.3958C14.0458 13.3096 12.8342 14.6185 12.0383 16.1778C11.2424 17.7371 10.8932 19.4862 11.0292 21.2316C11.1652 22.977 11.7812 24.6508 12.809 26.068L11.625 29.6L15.276 28.43C16.5126 29.2457 17.9228 29.761 19.3939 29.9345C20.8651 30.1081 22.3565 29.9353 23.7489 29.4298C25.1414 28.9243 26.3963 28.1002 27.4135 27.0232C28.4307 25.9463 29.1819 24.6464 29.6072 23.2274C30.0325 21.8084 30.1201 20.3096 29.8629 18.8507C29.6057 17.3918 29.011 16.0133 28.1261 14.8253C27.2412 13.6372 26.0907 12.6726 24.7666 12.0084C23.4425 11.3442 21.9814 10.9989 20.5 11ZM26.03 24.415C25.838 24.7626 25.5712 25.0633 25.2489 25.2952C24.9265 25.5271 24.5566 25.6845 24.166 25.756C23.666 25.862 23.021 25.946 20.839 25.041C18.9151 24.0994 17.2809 22.656 16.109 20.863C15.4643 20.0376 15.0721 19.0433 14.98 18C14.9677 17.5677 15.0479 17.1377 15.2154 16.739C15.3829 16.3402 15.6337 15.9819 15.951 15.688C16.2186 15.4534 16.5665 15.3312 16.922 15.347C17.04 15.347 17.145 15.353 17.24 15.358C17.519 15.37 17.659 15.386 17.84 15.827C18.069 16.379 18.627 17.742 18.694 17.883C18.741 17.9594 18.7691 18.0458 18.7761 18.1352C18.783 18.2246 18.7686 18.3143 18.734 18.397C18.6558 18.5582 18.5518 18.7054 18.426 18.833C18.286 18.995 18.153 19.118 18.013 19.291C17.885 19.442 17.74 19.603 17.901 19.882C18.32 20.5936 18.8412 21.2399 19.448 21.8C20.0974 22.3943 20.8534 22.8605 21.676 23.174C21.7853 23.226 21.9079 23.2437 22.0274 23.2248C22.147 23.2059 22.2581 23.1512 22.346 23.068C22.6107 22.7538 22.8584 22.4257 23.088 22.085C23.1556 21.9719 23.2629 21.888 23.389 21.8497C23.5151 21.8115 23.6509 21.8215 23.77 21.878C24.026 21.967 25.384 22.638 25.663 22.778C25.942 22.918 26.126 22.985 26.194 23.102C26.2653 23.5464 26.2084 24.0018 26.03 24.415Z" fill="black"/>
<path d="M15.276 28.43L11.624 29.597L12.808 26.068C11.7801 24.6507 11.1642 22.9768 11.0282 21.2313C10.8922 19.4858 11.2416 17.7367 12.0376 16.1774C12.8336 14.618 14.0452 13.3091 15.5387 12.3954C17.0321 11.4817 18.7492 10.9988 20.5 11H20.505C23.0246 11 25.4409 12.0009 27.2225 13.7825C29.0041 15.5641 30.005 17.9804 30.005 20.5C30.005 23.0196 29.0041 25.4359 27.2225 27.2175C25.4409 28.9991 23.0246 30 20.505 30C18.6452 30.0046 16.8257 29.4583 15.276 28.43ZM15.952 15.686C15.6343 15.9796 15.3832 16.3379 15.2156 16.7367C15.0479 17.1355 14.9676 17.5656 14.98 17.998C15.0716 19.0423 15.4638 20.0377 16.109 20.864C17.2808 22.6565 18.9145 24.0995 20.838 25.041C23.02 25.946 23.669 25.862 24.165 25.756C24.5558 25.6845 24.9258 25.5271 25.2483 25.2952C25.5708 25.0633 25.8378 24.7627 26.03 24.415C26.2088 24.0002 26.265 23.5428 26.192 23.097C26.124 22.979 25.941 22.912 25.662 22.772C25.383 22.632 24.0249 21.962 23.7679 21.872C23.6489 21.8161 23.5135 21.8063 23.3877 21.8445C23.2619 21.8828 23.1548 21.9663 23.087 22.079C22.8574 22.4202 22.6093 22.7487 22.344 23.063C22.2559 23.146 22.1448 23.2005 22.0253 23.2192C21.9057 23.238 21.7832 23.2201 21.6739 23.168C20.8514 22.8543 20.0956 22.3882 19.446 21.794C18.8412 21.2345 18.3217 20.5893 17.904 19.879C17.743 19.6 17.888 19.439 18.016 19.288C18.156 19.114 18.29 18.988 18.43 18.83C18.5551 18.7021 18.6588 18.5549 18.7371 18.394C18.7717 18.3111 18.7861 18.2211 18.7789 18.1315C18.7718 18.042 18.7434 17.9554 18.696 17.879C18.63 17.739 18.071 16.379 17.843 15.823C17.659 15.383 17.518 15.366 17.243 15.354C17.149 15.354 17.043 15.343 16.925 15.343C16.5685 15.327 16.2197 15.45 15.952 15.686Z" fill="white"/>
</svg>
