<svg width="40" height="40" viewBox="0 0 40 40" fill="none" xmlns="http://www.w3.org/2000/svg">
<path d="M30 0H10C4.47715 0 0 4.47715 0 10V30C0 35.5228 4.47715 40 10 40H30C35.5228 40 40 35.5228 40 30V10C40 4.47715 35.5228 0 30 0Z" fill="#EF1617"/>
<path d="M27.552 22.509C24.3288 23.834 21.1923 25.3607 18.161 27.08C15.1557 28.7867 13.7783 28.1163 14.029 25.069C14.2793 22.0268 14.2793 18.9692 14.029 15.927C13.7783 12.8797 15.1557 12.2093 18.161 13.916C21.1923 15.6353 24.3288 17.162 27.552 18.487C30.8074 19.829 30.8074 21.1697 27.552 22.509Z" fill="white"/>
</svg>
