<?xml version="1.0" encoding="utf-8"?>
<!-- Generator: Adobe Illustrator 20.1.0, SVG Export Plug-In . SVG Version: 6.00 Build 0)  -->
<svg version="1.1" id="Слой_1" xmlns="http://www.w3.org/2000/svg" xmlns:xlink="http://www.w3.org/1999/xlink" x="0px" y="0px"
	 viewBox="0 0 449.4 400.6" style="enable-background:new 0 0 449.4 400.6;" xml:space="preserve">
<style type="text/css">
	.st0{fill:#FFFFFF;}
</style>
<g id="Background">
</g>
<g id="Objects">
	<g>
		<path class="st0" d="M397.3,390.4c3.6,4.3,8.6,10.2,18.2,10.2c9.6,0,14.5-5.9,18.2-10.2c3.4-4,5.2-6,9.1-6c3.3,0,5.9-2.7,5.9-5.9
			c0-3.3-2.7-5.9-5.9-5.9c-9.6,0-14.5,5.9-18.2,10.2c-3.4,4-5.2,6-9.1,6c-3.9,0-5.7-1.9-9.1-6c-3.6-4.3-8.6-10.2-18.2-10.2
			c-9.6,0-14.5,5.9-18.2,10.2c-3.4,4-5.2,6-9.1,6s-5.7-1.9-9.1-6c-3.6-4.3-8.6-10.2-18.2-10.2c-9.6,0-14.5,5.9-18.2,10.2
			c-3.4,4-5.2,6-9.1,6c-3.9,0-5.7-1.9-9.1-6c-3.6-4.3-8.6-10.2-18.2-10.2c-9.6,0-14.5,5.9-18.2,10.2c-3.4,4-5.2,6-9.1,6
			c-3.9,0-5.7-1.9-9.1-6c-3.6-4.3-8.6-10.2-18.2-10.2s-14.5,5.9-18.2,10.2c-3.4,4-5.2,6-9.1,6s-5.7-1.9-9.1-6
			c-3.6-4.3-8.6-10.2-18.2-10.2s-14.5,5.9-18.2,10.2c-3.4,4-5.2,6-9.1,6s-5.7-1.9-9.1-6c-3.6-4.3-8.6-10.2-18.2-10.2
			s-14.5,5.9-18.2,10.2c-3.4,4-5.2,6-9.1,6s-5.7-1.9-9.1-6c-3.6-4.3-8.6-10.2-18.2-10.2s-14.5,5.9-18.2,10.2c-3.4,4-5.2,6-9.1,6
			s-5.7-1.9-9.1-6c-3.6-4.3-8.6-10.2-18.2-10.2c-3.3,0-5.9,2.7-5.9,5.9c0,3.3,2.7,5.9,5.9,5.9c3.9,0,5.7,1.9,9.1,6
			c3.6,4.3,8.6,10.2,18.2,10.2s14.5-5.9,18.2-10.2c3.4-4,5.2-6,9.1-6s5.7,1.9,9.1,6c3.6,4.3,8.6,10.2,18.2,10.2s14.5-5.9,18.2-10.2
			c3.4-4,5.2-6,9.1-6s5.7,1.9,9.1,6c3.6,4.3,8.6,10.2,18.2,10.2s14.5-5.9,18.2-10.2c3.4-4,5.2-6,9.1-6s5.7,1.9,9.1,6
			c3.6,4.3,8.6,10.2,18.2,10.2s14.5-5.9,18.2-10.2c3.4-4,5.2-6,9.1-6s5.7,1.9,9.1,6c3.6,4.3,8.6,10.2,18.2,10.2s14.5-5.9,18.2-10.2
			c3.4-4,5.2-6,9.1-6c3.9,0,5.7,1.9,9.1,6c3.6,4.3,8.6,10.2,18.2,10.2c9.6,0,14.5-5.9,18.2-10.2c3.4-4,5.2-6,9.1-6
			c3.9,0,5.7,1.9,9.1,6c3.6,4.3,8.6,10.2,18.2,10.2c9.6,0,14.5-5.9,18.2-10.2c3.4-4,5.2-6,9.1-6
			C392.1,384.5,393.9,386.4,397.3,390.4z"/>
		<path class="st0" d="M442.7,342.2c-9.6,0-14.5,5.9-18.2,10.2c-3.4,4-5.2,6-9.1,6c-3.9,0-5.7-1.9-9.1-6
			c-3.6-4.3-8.6-10.2-18.2-10.2c-9.6,0-14.5,5.9-18.2,10.2c-3.4,4-5.2,6-9.1,6s-5.7-1.9-9.1-6c-3.6-4.3-8.6-10.2-18.2-10.2
			c-9.6,0-14.5,5.9-18.2,10.2c-3.4,4-5.2,6-9.1,6c-3.9,0-5.7-1.9-9.1-6c-3.6-4.3-8.6-10.2-18.2-10.2c-9.6,0-14.5,5.9-18.2,10.2
			c-3.4,4-5.2,6-9.1,6c-3.9,0-5.7-1.9-9.1-6c-3.6-4.3-8.6-10.2-18.2-10.2s-14.5,5.9-18.2,10.2c-3.4,4-5.2,6-9.1,6s-5.7-1.9-9.1-6
			c-3.6-4.3-8.6-10.2-18.2-10.2s-14.5,5.9-18.2,10.2c-3.4,4-5.2,6-9.1,6s-5.7-1.9-9.1-6c-3.6-4.3-8.6-10.2-18.2-10.2
			s-14.5,5.9-18.2,10.2c-3.4,4-5.2,6-9.1,6s-5.7-1.9-9.1-6c-3.6-4.3-8.6-10.2-18.2-10.2s-14.5,5.9-18.2,10.2c-3.4,4-5.2,6-9.1,6
			s-5.7-1.9-9.1-6c-3.6-4.3-8.6-10.2-18.2-10.2c-3.3,0-5.9,2.7-5.9,5.9c0,3.3,2.7,5.9,5.9,5.9c3.9,0,5.7,1.9,9.1,6
			c3.6,4.3,8.6,10.2,18.2,10.2s14.5-5.9,18.2-10.2c3.4-4,5.2-6,9.1-6s5.7,1.9,9.1,6c3.6,4.3,8.6,10.2,18.2,10.2s14.5-5.9,18.2-10.2
			c3.4-4,5.2-6,9.1-6s5.7,1.9,9.1,6c3.6,4.3,8.6,10.2,18.2,10.2s14.5-5.9,18.2-10.2c3.4-4,5.2-6,9.1-6s5.7,1.9,9.1,6
			c3.6,4.3,8.6,10.2,18.2,10.2s14.5-5.9,18.2-10.2c3.4-4,5.2-6,9.1-6s5.7,1.9,9.1,6c3.6,4.3,8.6,10.2,18.2,10.2s14.5-5.9,18.2-10.2
			c3.4-4,5.2-6,9.1-6c3.9,0,5.7,1.9,9.1,6c3.6,4.3,8.6,10.2,18.2,10.2c9.6,0,14.5-5.9,18.2-10.2c3.4-4,5.2-6,9.1-6
			c3.9,0,5.7,1.9,9.1,6c3.6,4.3,8.6,10.2,18.2,10.2c9.6,0,14.5-5.9,18.2-10.2c3.4-4,5.2-6,9.1-6c3.9,0,5.7,1.9,9.1,6
			c3.6,4.3,8.6,10.2,18.2,10.2c9.6,0,14.5-5.9,18.2-10.2c3.4-4,5.2-6,9.1-6c3.3,0,5.9-2.7,5.9-5.9
			C448.7,344.8,446,342.2,442.7,342.2z"/>
		<path class="st0" d="M446.9,1.7c-1.1-1.1-2.6-1.7-4.2-1.7H6.7C3.4,0,0.8,2.7,0.8,5.9v310.6c0,0.2,0,0.4,0.1,0.6
			c0,0.2-0.1,0.4-0.1,0.6c0,3.3,2.7,5.9,5.9,5.9c3.9,0,5.7,1.9,9.1,6c3.6,4.3,8.6,10.2,18.2,10.2s14.5-5.9,18.2-10.2
			c3.4-4,5.2-6,9.1-6s5.7,1.9,9.1,6c3.6,4.3,8.6,10.2,18.2,10.2s14.5-5.9,18.2-10.2c3.4-4,5.2-6,9.1-6s5.7,1.9,9.1,6
			c3.6,4.3,8.6,10.2,18.2,10.2s14.5-5.9,18.2-10.2c3.4-4,5.2-6,9.1-6s5.7,1.9,9.1,6c3.6,4.3,8.6,10.2,18.2,10.2s14.5-5.9,18.2-10.2
			c3.4-4,5.2-6,9.1-6s5.7,1.9,9.1,6c3.6,4.3,8.6,10.2,18.2,10.2s14.5-5.9,18.2-10.2c3.4-4,5.2-6,9.1-6c3.9,0,5.7,1.9,9.1,6
			c3.6,4.3,8.6,10.2,18.2,10.2c9.6,0,14.5-5.9,18.2-10.2c3.4-4,5.2-6,9.1-6c3.9,0,5.7,1.9,9.1,6c3.6,4.3,8.6,10.2,18.2,10.2
			c9.6,0,14.5-5.9,18.2-10.2c3.4-4,5.2-6,9.1-6c3.9,0,5.7,1.9,9.1,6c3.6,4.3,8.6,10.2,18.2,10.2c9.6,0,14.5-5.9,18.2-10.2
			c3.4-4,5.2-6,9.1-6c3.3,0,5.9-2.7,5.9-5.9c0-0.7-0.1-1.3-0.3-1.9L449.4,6C448.7,4.3,448.1,2.8,446.9,1.7z M436.5,297.4
			l-88.2-125.5V11.8h88.6L436.5,297.4z M113,192.5l20.6,29.2L113,251V192.5z M140.9,211.3L113,171.9V11.8h223.4v160.1l-27.9,39.4
			L229.5,99c-1.1-1.6-2.9-2.5-4.8-2.5s-3.7,0.9-4.9,2.5L140.9,211.3z M256.3,157.7H231v-36L256.3,157.7z M231,169.5h32.9
			c0.2,0,0.5,0,0.7-0.1l30.4,43.3h-64L231,169.5L231,169.5z M231,224.6h72.3l31.4,44.6H231V224.6z M315.8,221.6l20.6-29.2v58.5
			L315.8,221.6z M101.2,11.8v160.1l-88.6,126V11.8H101.2z M43,321.9c-3.4,4-5.2,6-9.1,6s-5.7-1.9-9.1-6c-2.2-2.6-5-5.9-9-8
			l85.4-121.4v75.3l-32,45.5c-2.3-1-4.9-1.6-8-1.6C51.6,311.7,46.6,317.6,43,321.9z M206.5,321.9c-3.4,4-5.2,6-9.1,6s-5.7-1.9-9.1-6
			c-3.6-4.3-8.6-10.2-18.2-10.2s-14.5,5.9-18.2,10.2c-3.4,4-5.2,6-9.1,6s-5.7-1.9-9.1-6c-3.6-4.3-8.6-10.2-18.2-10.2
			s-14.5,5.9-18.2,10.2c-3.4,4-5.2,6-9.1,6s-5.7-1.9-9.1-6c-0.3-0.3-0.6-0.7-0.9-1.1l33.6-47.8l0,0l0,0l107.1-152.4v191.8
			C213.1,314.1,209.4,318.5,206.5,321.9z M361,327.8c-3.9,0-5.7-1.9-9.1-6c-3.6-4.3-8.6-10.2-18.2-10.2c-9.6,0-14.5,5.9-18.2,10.2
			c-3.4,4-5.2,6-9.1,6c-3.9,0-5.7-1.9-9.1-6c-3.6-4.3-8.6-10.2-18.2-10.2c-9.6,0-14.5,5.9-18.2,10.2c-3.4,4-5.2,6-9.1,6
			c-3.9,0-5.7-1.9-9.1-6c-2.7-3.2-6.2-7.3-11.8-9.2V281h112l27.9,39.8c-0.3,0.4-0.6,0.7-0.9,1.1C366.7,325.9,364.8,327.8,361,327.8z
			 M424.6,321.9c-3.4,4-5.2,6-9.1,6c-3.9,0-5.7-1.9-9.1-6c-3.6-4.3-8.6-10.2-18.2-10.2c-3.1,0-5.7,0.6-8,1.6l-32-45.5v-75.3
			l85.3,121.3C429.6,316,426.8,319.2,424.6,321.9z"/>
	</g>
</g>
</svg>
