<?xml version="1.0" encoding="UTF-8"?>
<svg width="500px" height="500px" viewBox="0 0 500 500" version="1.1" xmlns="http://www.w3.org/2000/svg" xmlns:xlink="http://www.w3.org/1999/xlink">
    <!-- Generator: Sketch 46.2 (44496) - http://www.bohemiancoding.com/sketch -->
    <title>Mobile Copy 2</title>
    <desc>Created with Sketch.</desc>
    <defs></defs>
    <g id="Page-1" stroke="none" stroke-width="1" fill="none" fill-rule="evenodd" stroke-linecap="round" stroke-linejoin="round">
        <g id="Mobile-Copy-2" stroke="#99CF61" stroke-width="6">
            <g id="Group-3" transform="translate(130.000000, 140.000000)">
                <g id="Group-2" transform="translate(130.500000, 142.500000) rotate(-5.000000) translate(-130.500000, -142.500000) translate(7.000000, 61.000000)" fill="#FFFFFF">
                    <path d="M199.579912,93.701175 C201.461203,87.372691 202.489124,80.6868659 202.489124,73.7582671 L202.489124,46.3357459 L206.936064,46.3357459 C215.425423,46.3357459 222.329954,53.1334105 222.329954,61.4886461 C222.329954,75.806841 213.192256,88.7147661 199.579912,93.701175 M206.877307,26.8461774 L202.5227,26.8461774 L202.5227,24.3264412 C202.5227,16.5771663 196.24447,10.2968324 188.503852,10.2968324 L20.2234054,10.2968324 C12.4827871,10.2968324 6.20455685,16.5771663 6.20455685,24.3264412 L6.20455685,73.1490453 C6.20455685,105.566212 28.0481315,132.862449 57.8005397,141.146625 L57.8005397,143.571328 C57.8005397,148.423449 61.7671658,152.39312 66.6155657,152.39312 L142.108978,152.39312 C146.957378,152.39312 150.926717,148.423449 150.926717,143.571328 L150.926717,141.146625 C162.479312,137.929074 172.84626,131.863243 181.194624,123.72026 C185.231792,119.788602 190.085618,116.720389 195.378975,114.795289 L205.938557,110.953234 C226.875939,103.33429 240.943624,83.2307054 240.943624,60.9359274 C240.943624,42.1410848 225.660447,26.8461774 206.877307,26.8461774" id="Fill-1" transform="translate(123.574091, 81.344976) rotate(5.000000) translate(-123.574091, -81.344976) "></path>
                </g>
                <path d="M30.4861111,87 L99.5138889,87" id="Line"></path>
                <path d="M118.5,87 L132.642136,87" id="Line"></path>
                <g id="Group" transform="translate(58.000000, 13.000000)">
                    <path d="M5.21007558,0 C-1.73669186,3.82630801 -1.73669186,10.0294034 5.21007558,13.8557115 C17.5014034,20.6258252 17.5014034,31.5995487 5.21007558,38.3696625" id="Stroke-3"></path>
                    <path d="M91.7815042,0 C84.8347367,3.82630801 84.8347367,10.0294034 91.7815042,13.8557115 C104.072832,20.6258252 104.072832,31.5995487 91.7815042,38.3696625" id="Stroke-3"></path>
                </g>
                <path d="M106.055321,0 C99.314893,5.08583333 99.314893,13.3308333 106.055321,18.4166667 C117.98156,27.4153333 117.98156,42.0013333 106.055321,51" id="Stroke-3"></path>
            </g>
        </g>
    </g>
</svg>