<?xml version="1.0" encoding="UTF-8"?>
<svg width="500px" height="500px" viewBox="0 0 500 500" version="1.1" xmlns="http://www.w3.org/2000/svg" xmlns:xlink="http://www.w3.org/1999/xlink">
    <!-- Generator: Sketch 46.2 (44496) - http://www.bohemiancoding.com/sketch -->
    <title>Mobile Copy 6</title>
    <desc>Created with Sketch.</desc>
    <defs>
        <polygon id="path-1" points="0.10251992 242.366337 259.903891 242.366337 259.903891 0.0578752478 0.10251992 0.0578752478"></polygon>
    </defs>
    <g id="Page-1" stroke="none" stroke-width="1" fill="none" fill-rule="evenodd">
        <g id="Mobile-Copy-6">
            <g id="Group" transform="translate(104.000000, 116.000000)">
                <g id="Page-1">
                    <g id="Group-3" transform="translate(31.854545, 25.656208)">
                        <mask id="mask-2" fill="white">
                            <use xlink:href="#path-1"></use>
                        </mask>
                        <g id="Clip-2"></g>
                        <path d="M255.671351,94.9977495 C262.837296,104.849542 260.687115,118.664423 250.867951,125.85418 L97.5573327,238.119066 C87.7394964,245.310155 73.9690418,243.151497 66.8017691,233.299705 L4.33633273,147.426116 C-2.83094,137.574324 -0.680758182,123.759443 9.13973273,116.569685 L162.450351,4.30479901 C172.268187,-2.88495842 186.038642,-0.727631683 193.205915,9.1241604 L255.671351,94.9977495 Z" id="Fill-1" fill="#FEFEFE" mask="url(#mask-2)"></path>
                    </g>
                    <path d="M226.311945,61.5286896 C236.502745,68.1777837 239.390891,81.8568332 232.765145,92.0814965 L129.296273,251.72767 C122.670527,261.952333 109.036782,264.851407 98.8459818,258.202313 L10.0142727,200.247462 C-0.177854545,193.598368 -3.066,179.919318 3.56107273,169.694655 L107.028618,10.0484817 C113.655691,-0.176181683 127.289436,-3.07525594 137.480236,3.57250644 L226.311945,61.5286896 Z" id="Stroke-4" stroke="#FEFEFE" stroke-width="9"></path>
                    <path d="M238.005882,98.8846663 C242.449591,104.993097 241.115682,113.559815 235.027482,118.01829 L213.119518,134.061077 C207.029991,138.519552 198.491645,137.181211 194.049264,131.07278 L186.666973,120.924023 C182.223264,114.815592 183.557173,106.248874 189.644045,101.791731 L211.553336,85.7489436 C217.641536,81.2904683 226.179882,82.6274782 230.623591,88.7359089 L238.005882,98.8846663 Z" id="Fill-6" fill="#1D1D1B"></path>
                </g>
            </g>
        </g>
    </g>
</svg>