<?xml version="1.0" encoding="UTF-8"?>
<svg width="39px" height="39px" viewBox="0 0 39 39" version="1.1" xmlns="http://www.w3.org/2000/svg" xmlns:xlink="http://www.w3.org/1999/xlink">
    <!-- Generator: Sketch 46.2 (44496) - http://www.bohemiancoding.com/sketch -->
    <title>Group 2</title>
    <desc>Created with Sketch.</desc>
    <defs></defs>
    <g id="Page-1" stroke="none" stroke-width="1" fill="none" fill-rule="evenodd">
        <g id="iPhone-7" transform="translate(-1188.000000, -386.000000)">
            <g id="Group-2" transform="translate(1188.000000, 386.000000)">
                <path d="M14.812,2.458 C15.587,1.066 17.348,0 19.334,0 C21.32,0 23.081,1.066 23.855,2.458 C25.223,1.64 27.28,1.597 29,2.59 C30.721,3.583 31.712,5.387 31.687,6.979 C33.28,6.955 35.084,7.946 36.077,9.666 C37.07,11.386 37.027,13.444 36.209,14.811 C37.601,15.586 38.667,17.346 38.667,19.333 C38.667,21.319 37.601,23.08 36.209,23.854 C37.027,25.222 37.07,27.279 36.077,29 C35.084,30.72 33.28,31.711 31.687,31.686 C31.712,33.279 30.721,35.083 29,36.076 C27.28,37.069 25.223,37.026 23.855,36.208 C23.081,37.6 21.32,38.666 19.334,38.666 C17.348,38.666 15.587,37.6 14.812,36.208 C13.445,37.026 11.388,37.069 9.667,36.076 C7.947,35.083 6.956,33.279 6.98,31.686 C5.388,31.711 3.584,30.72 2.591,29 C1.598,27.279 1.641,25.222 2.459,23.854 C1.067,23.08 0,21.319 0,19.333 C0,17.346 1.067,15.586 2.459,14.811 C1.641,13.444 1.598,11.386 2.591,9.666 C3.584,7.946 5.388,6.955 6.98,6.979 C6.956,5.387 7.947,3.583 9.667,2.59 C11.388,1.597 13.445,1.64 14.812,2.458" id="Fill-1" fill="#199C68"></path>
                <g id="Group-5" transform="translate(10.000000, 11.000000)" stroke="#FEFEFE" stroke-width="3" stroke-linecap="round" stroke-linejoin="round">
                    <path d="M15.174,0 L2,17.228" id="Stroke-4"></path>
                    <path d="M17.236,14.618 C17.236,13.172 16.064,12 14.618,12 C13.172,12 12,13.172 12,14.618 C12,16.064 13.172,17.236 14.618,17.236 C16.064,17.236 17.236,16.064 17.236,14.618 Z" id="Stroke-6"></path>
                    <path d="M5.236,2.618 C5.236,1.172 4.064,0 2.618,0 C1.172,0 0,1.172 0,2.618 C0,4.064 1.172,5.236 2.618,5.236 C4.064,5.236 5.236,4.064 5.236,2.618 Z" id="Stroke-8"></path>
                </g>
            </g>
        </g>
    </g>
</svg>