<?xml version="1.0" encoding="UTF-8"?>
<svg width="39px" height="39px" viewBox="0 0 39 39" version="1.1" xmlns="http://www.w3.org/2000/svg" xmlns:xlink="http://www.w3.org/1999/xlink">
    <!-- Generator: Sketch 46.2 (44496) - http://www.bohemiancoding.com/sketch -->
    <title>Group 3</title>
    <desc>Created with Sketch.</desc>
    <defs></defs>
    <g id="Page-1" stroke="none" stroke-width="1" fill="none" fill-rule="evenodd">
        <g id="iPhone-7" transform="translate(-1189.000000, -496.000000)">
            <g id="Group-3" transform="translate(1189.000000, 496.000000)">
                <g id="Page-1" fill="#199C68">
                    <path d="M38.9392,12 C38.9392,5.4 33.5392,0 26.9392,0 L12.0002,0 C5.4002,0 0.0002,5.4 0.0002,12 L0.0002,19.978 C0.0002,25.069 3.2192,29.435 7.7172,31.17 L7.7172,37.486 C7.7172,37.981 8.0262,38.423 8.4902,38.594 C8.9542,38.765 9.4762,38.628 9.7962,38.251 L15.1372,31.978 L26.9392,31.978 C33.5392,31.978 38.9392,26.578 38.9392,19.978 L38.9392,12 Z" id="Fill-1"></path>
                </g>
                <g id="Page-1" transform="translate(11.000000, 8.000000)">
                    <path d="M14.5916,4.1555 C12.0916,2.8225 8.0916,4.1555 8.0916,4.1555 C8.0916,4.1555 4.0916,2.8225 1.5916,4.1555 C-0.9084,5.4885 -1.5754,16.0155 8.0916,15.1695 C17.7586,16.0155 17.0916,5.4885 14.5916,4.1555" id="Fill-1" fill="#FEFEFE"></path>
                    <path d="M14.5916,4.1555 C12.0916,2.8225 8.0916,4.1555 8.0916,4.1555 C8.0916,4.1555 4.0916,2.8225 1.5916,4.1555 C-0.9084,5.4885 -1.5754,16.0155 8.0916,15.1695 C17.7586,16.0155 17.0916,5.4885 14.5916,4.1555 Z" id="Stroke-3" stroke="#FEFEFE" stroke-width="2" stroke-linecap="round" stroke-linejoin="round"></path>
                    <g id="Group-8" transform="translate(5.000000, 0.217300)">
                        <polyline id="Fill-5" fill="#FEFEFE" points="3.0916 0.7824 3.0916 3.9384 0.5906 0.7824"></polyline>
                        <polyline id="Stroke-7" stroke="#FEFEFE" stroke-width="2" stroke-linecap="round" stroke-linejoin="round" points="3.0916 0.7824 3.0916 3.9384 0.5906 0.7824"></polyline>
                    </g>
                    <g id="Group-12" transform="translate(8.000000, 0.217300)">
                        <polyline id="Fill-9" fill="#FEFEFE" points="0.0916 0.7824 0.0916 3.9384 2.5926 0.7824"></polyline>
                        <polyline id="Stroke-11" stroke="#FEFEFE" stroke-width="2" stroke-linecap="round" stroke-linejoin="round" points="0.0916 0.7824 0.0916 3.9384 2.5926 0.7824"></polyline>
                    </g>
                </g>
            </g>
        </g>
    </g>
</svg>