<?xml version="1.0" encoding="UTF-8"?>
<svg width="39px" height="39px" viewBox="0 0 39 39" version="1.1" xmlns="http://www.w3.org/2000/svg" xmlns:xlink="http://www.w3.org/1999/xlink">
    <!-- Generator: Sketch 46.2 (44496) - http://www.bohemiancoding.com/sketch -->
    <title>Group 4</title>
    <desc>Created with Sketch.</desc>
    <defs></defs>
    <g id="Page-1" stroke="none" stroke-width="1" fill="none" fill-rule="evenodd">
        <g id="iPhone-7" transform="translate(-1189.000000, -548.000000)">
            <g id="Group-4" transform="translate(1189.000000, 548.000000)">
                <rect id="Rectangle-2" fill="#FFFFFF" x="0" y="0" width="39" height="39" rx="11"></rect>
                <g id="Page-1" transform="translate(8.000000, 3.000000)" fill="#199C68">
                    <path d="M19,7.49958748 C19,11.6420989 15.6420989,15 11.5004125,15 C7.35790111,15 4,11.6420989 4,7.49958748 C4,3.35790111 7.35790111,0 11.5004125,0 C15.6420989,0 19,3.35790111 19,7.49958748" id="Fill-1"></path>
                    <path d="M23,28.3018927 C23,31.4487944 20.2947501,32 16.9576411,32 L6.04235886,32 C2.9124537,32 0.339557221,31.7568836 0.0310120852,28.8828528 C0.0105044666,28.6918288 0,26.4980176 0,26.3018927 C0,20.6120819 4.8911183,16 10.9243797,16 L12.0756203,16 C18.1088817,16 23,20.6120819 23,26.3018927 L23,28.3018927 Z" id="Fill-3"></path>
                </g>
            </g>
        </g>
    </g>
</svg>