<?xml version="1.0" encoding="UTF-8"?>
<svg width="500px" height="500px" viewBox="0 0 500 500" version="1.1" xmlns="http://www.w3.org/2000/svg" xmlns:xlink="http://www.w3.org/1999/xlink">
    <!-- Generator: Sketch 46.2 (44496) - http://www.bohemiancoding.com/sketch -->
    <title>Mobile Copy 9</title>
    <desc>Created with Sketch.</desc>
    <defs>
        <polygon id="path-1" points="0.92879257 80.7630517 0.92879257 0.184736842 299.825851 0.184736842 299.825851 80.7630517 299.826854 0.18495735 0.928231408 0.18495735 0.928231408 80.7630517"></polygon>
    </defs>
    <g id="Page-1" stroke="none" stroke-width="1" fill="none" fill-rule="evenodd">
        <g id="Mobile-Copy-9">
            <g id="Page-1" transform="translate(100.000000, 114.000000)">
                <path d="M221.187765,153.999471 C219.190459,153.999471 217.182143,153.321628 215.532769,151.935031 C173.314083,116.435499 128.686298,116.435499 86.467612,151.935031 C82.7438587,155.068122 77.1835529,154.582371 74.0587712,150.842092 C70.9339894,147.104021 71.4206538,141.533346 75.1488113,138.400255 C123.352809,97.8665817 178.647572,97.8665817 226.85157,138.400255 C230.579727,141.533346 231.066392,147.104021 227.939408,150.842092 C226.197546,152.926404 223.702565,153.999471 221.187765,153.999471 Z" id="Fill-1" fill="#FFFFFF"></path>
                <path d="M261.150974,119 C258.999177,119 256.845169,118.219047 255.142308,116.637173 C221.646812,85.5232955 186.775759,69.7489321 151.5,69.7489321 C116.224241,69.7489321 81.3531878,85.5232955 47.8576924,116.637173 C44.2728384,119.967317 38.677724,119.749892 35.3538279,116.155734 C32.0365664,112.559356 32.2510826,106.944038 35.8359366,103.613894 C72.7084042,69.3651114 111.624305,52 151.5,52 C191.375695,52 230.291596,69.3651114 267.164063,103.613894 C270.748917,106.944038 270.963434,112.559356 267.646172,116.155734 C265.899081,118.043776 263.528345,119 261.150974,119" id="Fill-3" fill="#FFFFFF"></path>
                <g id="Group-7">
                    <mask id="mask-2" fill="white">
                        <use xlink:href="#path-1"></use>
                    </mask>
                    <g id="Clip-6"></g>
                </g>
                <g id="Group-10" transform="translate(33.000000, 189.000000)" fill="#FFFFFF">
                    <path d="M16.8112633,13.6944316 L16.8112633,38.8855895 L21.4327363,38.8855895 C22.7603915,38.8855895 24.0726344,38.7816947 25.3628598,38.5716947 C26.6508835,38.3639053 28.3352221,37.9041158 30.4180775,37.1923263 C32.4965294,36.4849579 34.1830698,35.1873789 35.4732952,33.3084316 C36.7635206,31.4272737 37.4064316,29.0686421 37.4064316,26.2281158 C37.4064316,23.3875895 36.7833364,21.0267474 35.5349442,19.1455895 C34.286552,17.2666421 32.6220291,15.9712737 30.5413755,15.2616947 C28.4607219,14.5543263 26.7984007,14.1144316 25.5500085,13.9464316 C24.2994146,13.7806421 23.0091892,13.6944316 21.6793323,13.6944316 L16.8112633,13.6944316 Z M0.584366752,0.411378947 L24.6759138,0.411378947 C33.8285881,0.411378947 40.9028104,2.50032632 45.8963791,6.67601053 C51.3875433,11.3579053 54.1331254,17.6225368 54.1331254,25.4765368 C54.1331254,34.1661158 50.8899478,40.7247474 44.3969874,45.1502211 C41.9024048,46.9053789 38.86399,48.1167474 35.2861465,48.7865368 L61.249181,84.0002211 L41.0261084,84.0002211 L18.8082504,50.4134842 L16.8112633,50.4134842 L16.8112633,84.0002211 L0.584366752,84.0002211 L0.584366752,0.411378947 Z" id="Fill-8"></path>
                </g>
                <path d="M291.170489,80 C289.023438,80 286.87418,79.2293799 285.175074,77.6684363 C241.724312,37.7516283 196.411155,17.5140934 150.5,17.5140934 C104.588845,17.5140934 59.2756875,37.7516283 15.8249259,77.6684363 C12.2501844,80.9501396 6.66299594,80.7399704 3.34863689,77.1933665 C0.038691107,73.6445734 0.252734268,68.1035521 3.82968235,64.8174703 C50.6521754,21.8072355 99.9968472,0 150.5,0 C201.003153,0 250.347825,21.8072355 297.170318,64.8174703 C300.747266,68.1035521 300.961309,73.6445734 297.651363,77.1933665 C295.908125,79.0564282 293.542617,80 291.170489,80" id="Fill-5" fill="#FFFFFF"></path>
                <polygon id="Fill-11" fill="#FFFFFF" points="150 189 150 203.10626 121.525487 203.10626 121.525487 221.868696 148.219642 221.868696 148.219642 235.974956 121.525487 235.974956 121.525487 273 105 273 105 189"></polygon>
                <polygon id="Fill-13" fill="#FFFFFF" points="163 273 180 273 180 189 163 189"></polygon>
                <path d="M215.308447,203.105887 L215.308447,258.894113 L220.327112,258.894113 C228.857514,258.894113 235.670772,257.050352 240.775736,253.353943 C244.037425,251.003702 246.586588,247.833765 248.427651,243.846353 C250.2665,239.858941 251.189244,235.596076 251.189244,231.062199 C251.189244,226.614957 250.288628,222.394298 248.489609,218.406886 C246.692804,214.419474 244.161343,211.165124 240.899654,208.646057 C235.965076,204.954091 229.107562,203.105887 220.327112,203.105887 L215.308447,203.105887 Z M199,189 L220.827208,189 C227.432461,189 233.205696,189.566457 238.140273,190.701592 C243.074851,191.834506 247.675293,193.995927 251.939388,197.185857 C257.039927,201.048871 260.992015,205.9204 263.793439,211.796001 C266.597075,217.673825 268,224.09589 268,231.062199 C268,245.756757 262.392727,257.050352 251.189244,264.940763 C246.672888,268.132914 242.070233,270.272121 237.387916,271.362829 C232.703387,272.455757 227.100539,273 220.57716,273 L199,273 L199,189 Z" id="Fill-15" fill="#FFFFFF"></path>
            </g>
        </g>
    </g>
</svg>