<?xml version="1.0" encoding="UTF-8"?>
<svg width="500px" height="500px" viewBox="0 0 500 500" version="1.1" xmlns="http://www.w3.org/2000/svg" xmlns:xlink="http://www.w3.org/1999/xlink">
    <!-- Generator: Sketch 46.2 (44496) - http://www.bohemiancoding.com/sketch -->
    <title>Mobile Copy 10</title>
    <desc>Created with Sketch.</desc>
    <defs></defs>
    <g id="Page-1" stroke="none" stroke-width="1" fill="none" fill-rule="evenodd">
        <g id="Mobile-Copy-10">
            <g id="Group" transform="translate(134.000000, 118.000000)" fill="#FFFFFF">
                <path d="M126.639756,169.043991 C127.962024,166.656866 128.336372,163.862729 127.692108,161.176785 L127.126569,158.811986 C126.483912,156.126042 124.899761,153.867719 122.666527,152.454336 C120.433292,151.039235 117.82089,150.640808 115.306493,151.329468 L100,155.516381 L105.385469,178 L120.690355,173.81137 C123.204752,173.124427 125.317488,171.431115 126.639756,169.043991" id="Fill-1"></path>
                <path d="M192.040106,101.998986 L14.3717758,147.487542 L8.87158993,135.857598 L182.032499,53.9315515 L224.12841,142.934521 L204.851108,152.05389 L192.040106,101.998986 Z M112.627216,208.637621 L106.172576,210.290236 L104.000486,201.803926 L93.0917286,204.596045 L91.4376752,198.140519 L102.348098,195.348399 L99.7645768,185.252789 L88.8541536,188.044908 L87.2017658,181.589381 L98.1105233,178.797262 L90.8763297,150.531218 L113.198556,144.81537 C117.531077,143.705853 122.031834,144.350572 125.879633,146.629581 C129.724099,148.90859 132.454204,152.548674 133.561903,156.878459 L134.148234,159.172461 C135.257599,163.502245 134.612968,168.006953 132.334272,171.853614 C130.057242,175.698609 126.417658,178.427423 122.086803,179.53694 L106.219216,183.598508 L108.802738,193.695784 L133.460295,187.381863 L135.112682,193.83739 L110.455126,200.151311 L112.627216,208.637621 Z M152.28952,9.44089526 L183.554961,45.8400695 L24.6592222,121.017384 L152.28952,9.44089526 Z M216.421154,84.1017673 L207.356341,91.8900478 L188.050722,51.0744604 L216.421154,84.1017673 Z M233,146.108141 L210.309651,98.1373316 L225.815778,84.8147907 L152.964134,0 L2.59185016,131.457844 L0,132.682312 L7.79887046,149.170143 L0.0116599943,151.16261 L26.0784101,253 L218.10519,203.836375 L206.535144,158.629364 L233,146.108141 Z" id="Fill-3"></path>
                <path d="M177,70.000824 C177,84.9119236 164.911924,97 150.000824,97 C135.088076,97 123,84.9119236 123,70.000824 C123,55.0897244 135.088076,43 150.000824,43 C164.911924,43 177,55.0897244 177,70.000824" id="Fill-6"></path>
                <path d="M104,56 C104,70.9115547 91.9119236,83 77.000824,83 C62.0880764,83 50,70.9115547 50,56 C50,41.0884453 62.0880764,29 77.000824,29 C91.9119236,29 104,41.0884453 104,56" id="Fill-8"></path>
            </g>
            <g id="Page-1" transform="translate(160.000000, 118.000000)"></g>
        </g>
    </g>
</svg>