<?xml version="1.0" encoding="UTF-8"?>
<svg width="500px" height="500px" viewBox="0 0 500 500" version="1.1" xmlns="http://www.w3.org/2000/svg" xmlns:xlink="http://www.w3.org/1999/xlink">
    <!-- Generator: Sketch 46.2 (44496) - http://www.bohemiancoding.com/sketch -->
    <title>Mobile Copy 3</title>
    <desc>Created with Sketch.</desc>
    <defs></defs>
    <g id="Page-1" stroke="none" stroke-width="1" fill="none" fill-rule="evenodd">
        <g id="Mobile-Copy-3" stroke-width="6" stroke="#99CF61">
            <g id="Page-1" transform="translate(154.000000, 133.000000)">
                <g id="Group-10">
                    <polygon id="Stroke-2" points="182.296319 43.8183127 118.261192 43.8183127 73.9291816 43.8183127 9.89405488 43.8183127 0.0424969248 221.009214 73.9291816 221.009214 118.261192 221.009214 192.147877 221.009214"></polygon>
                    <path d="M51.7631762,67.1976677 L51.7631762,44.4335589 C51.7631762,20.3109865 71.3382218,0.751079758 95.4794646,0.751079758 L96.7109093,0.751079758 C120.852152,0.751079758 140.427198,20.3109865 140.427198,44.4335589 L140.427198,67.1976677" id="Stroke-4"></path>
                    <path d="M60.3832894,67.1976677 C60.3832894,71.9522902 56.5214787,75.8111143 51.7631762,75.8111143 C47.0048737,75.8111143 43.143063,71.9522902 43.143063,67.1976677 C43.143063,62.4430452 47.0048737,58.5842211 51.7631762,58.5842211 C56.5214787,58.5842211 60.3832894,62.4430452 60.3832894,67.1976677 Z" id="Stroke-6"></path>
                    <path d="M149.047311,67.1976677 C149.047311,71.9522902 145.1855,75.8111143 140.427198,75.8111143 C135.668895,75.8111143 131.807085,71.9522902 131.807085,67.1976677 C131.807085,62.4430452 135.668895,58.5842211 140.427198,58.5842211 C145.1855,58.5842211 149.047311,62.4430452 149.047311,67.1976677 Z" id="Stroke-8"></path>
                </g>
            </g>
        </g>
    </g>
</svg>