<?xml version="1.0" encoding="UTF-8"?>
<svg width="335px" height="74px" viewBox="0 0 335 74" version="1.1" xmlns="http://www.w3.org/2000/svg" xmlns:xlink="http://www.w3.org/1999/xlink">
    <!-- Generator: Sketch 46.2 (44496) - http://www.bohemiancoding.com/sketch -->
    <title>Page 1</title>
    <desc>Created with Sketch.</desc>
    <defs></defs>
    <g id="Page-1" stroke="none" stroke-width="1" fill="none" fill-rule="evenodd">
        <g transform="translate(0.000000, -1.000000)" fill="#FFFFFF">
            <path d="M150.0998,38.2002 L155.3998,38.2002 L155.3998,48.9002 C152.3998,52.2002 148.1998,53.8002 142.6998,53.8002 C138.0998,53.8002 134.1998,52.3002 130.9998,49.2002 C127.8998,46.0992 126.2998,42.3002 126.2998,37.6002 C126.2998,32.9002 127.8998,29.0002 131.0998,25.9002 C134.2998,22.8002 138.1998,21.2002 142.6998,21.2002 C147.1998,21.2002 150.9998,22.5002 153.9998,25.2002 L151.1998,29.2002 C149.9998,28.1002 148.6998,27.4002 147.4998,27.0002 C146.2998,26.6002 144.7998,26.4002 143.1998,26.4002 C139.9998,26.4002 137.3998,27.4002 135.1998,29.5002 C132.9998,31.6002 131.9998,34.3002 131.9998,37.6002 C131.9998,40.9002 132.9998,43.5992 135.0998,45.7002 C137.1998,47.8002 139.6998,48.7002 142.6998,48.7002 C145.6998,48.7002 148.1998,48.0992 150.1998,46.8002 L150.1998,38.2002 L150.0998,38.2002 Z" id="Fill-1"></path>
            <path d="M185.0002,36.7002 C186.1002,35.8002 186.6002,34.3002 186.6002,32.2002 C186.6002,30.1002 186.0002,28.7002 184.8992,28.0002 C183.8002,27.2002 181.8002,26.9002 179.0002,26.9002 L172.3002,26.9002 L172.3002,38.1002 L178.8992,38.1002 C181.8992,38.1002 183.8992,37.7002 185.0002,36.7002 M192.0002,32.3002 C192.0002,37.5002 189.7002,40.8002 185.2002,42.0992 L193.3992,53.5002 L186.7002,53.5002 L179.2002,42.9002 L172.2002,42.9002 L172.2002,53.5002 L166.9002,53.5002 L166.9002,22.1002 L178.6002,22.1002 C183.3992,22.1002 186.8002,22.9002 188.8992,24.5002 C191.0002,26.1002 192.0002,28.7002 192.0002,32.3002" id="Fill-3"></path>
            <path d="M226.0002,29.5 C223.8992,27.3 221.2002,26.2 218.1002,26.2 C215.0002,26.2 212.3002,27.3 210.2002,29.5 C208.1002,31.7 207.0002,34.4 207.0002,37.6 C207.0002,40.8 208.1002,43.5 210.2002,45.7 C212.3002,47.9 215.0002,49 218.1002,49 C221.2002,49 223.8002,47.9 226.0002,45.7 C228.1002,43.5 229.2002,40.8 229.2002,37.6 C229.2002,34.4 228.2002,31.7 226.0002,29.5 M229.8992,49.2 C226.7002,52.3 222.8002,53.9 218.1002,53.9 C213.3992,53.9 209.5002,52.3 206.3002,49.2 C203.1002,46.1 201.5002,42.2 201.5002,37.6 C201.5002,33 203.1002,29.1 206.3002,26 C209.5002,22.9 213.3992,21.3 218.1002,21.3 C222.8002,21.3 226.7002,22.9 229.8992,26 C233.1002,29.1 234.7002,33 234.7002,37.6 C234.7002,42.2 233.1002,46.1 229.8992,49.2" id="Fill-5"></path>
            <path d="M252.7004,46.2998 C254.0994,47.9998 256.0994,48.7998 258.5004,48.7998 C261.0004,48.7998 262.8994,47.9998 264.3004,46.2998 C265.7004,44.5998 266.5004,42.2998 266.5004,39.4998 L266.5004,22.0998 L271.8004,22.0998 L271.8004,39.6998 C271.8004,44.1998 270.5994,47.6998 268.0994,50.1998 C265.5994,52.5998 262.3994,53.9008 258.5004,53.9008 C254.5994,53.9008 251.3994,52.6998 248.8994,50.1998 C246.3994,47.7998 245.2004,44.2998 245.2004,39.6998 L245.2004,22.0998 L250.5004,22.0998 L250.5004,39.4998 C250.5004,42.2998 251.3004,44.5998 252.7004,46.2998" id="Fill-7"></path>
            <path d="M302.0002,37.7998 C303.1002,36.6998 303.6002,34.9998 303.6002,32.8998 C303.6002,30.6998 302.8992,29.1998 301.6002,28.2998 C300.3002,27.3998 298.1002,26.9998 295.3002,26.9998 L289.8002,26.9998 L289.8002,39.4998 L296.0002,39.4998 C298.8992,39.4998 300.8992,38.9008 302.0002,37.7998 M305.7002,24.7998 C307.8992,26.5998 309.0002,29.3998 309.0002,33.2998 C309.0002,37.0998 307.8992,39.9008 305.6002,41.6998 C303.3992,43.4998 299.8992,44.4008 295.3002,44.4008 L289.8002,44.4008 L289.8002,53.4998 L284.5002,53.4998 L284.5002,22.0998 L295.3002,22.0998 C300.0002,22.0998 303.5002,22.9998 305.7002,24.7998" id="Fill-9"></path>
            <g id="Group-13" transform="translate(0.000000, 0.800000)">
                <path d="M327.3996,66.4002 L100.2996,66.4002 L113.5006,7.7002 L327.3996,7.7002 L327.3996,66.4002 Z M86.5006,58.7992 L67.1996,58.7992 L77.0996,15.5002 L96.4006,15.5002 L86.5006,58.7992 Z M38.8996,58.7992 L15.8996,58.7992 L15.8996,15.5002 L39.5006,15.5002 C54.0006,15.5002 63.2996,23.8002 63.2996,37.1002 C63.3996,50.4002 53.7996,58.7992 38.8996,58.7992 L38.8996,58.7992 Z M334.2996,74.0002 L334.2996,0.2002 L111.1996,0.2002 L106.5006,0.2002 L0.0006,0.2002 L0.0006,74.0002 L106.4006,74.0002 L111.0996,74.0002 L334.2996,74.0002 Z" id="Fill-11"></path>
            </g>
        </g>
    </g>
</svg>